<svg width="40" height="34" viewBox="0 0 40 34" fill="none" xmlns="http://www.w3.org/2000/svg">
<path d="M22.0523 29.8139C21.2247 30.3398 20.5236 30.7625 20.0066 31.0663C19.4887 30.7583 18.7858 30.3295 17.9558 29.7965C16.1241 28.6201 13.6924 26.9479 11.2706 24.9556C8.83899 22.9552 6.47693 20.6804 4.73797 18.3085C2.98257 15.9141 2 13.6092 2 11.5068C2 6.60256 5.97569 2.62679 10.88 2.62679H10.8878L10.8956 2.62673C13.891 2.60337 16.6914 4.10998 18.3226 6.62247L19.9903 9.19131L21.6717 6.63142C23.3171 4.12632 26.1154 2.62038 29.1126 2.62678C34.0096 2.6519 37.9736 6.61496 38 11.5118C37.9985 13.6585 37.0109 15.9835 35.2604 18.3782C33.523 20.755 31.163 23.0233 28.7331 25.0126C26.313 26.9938 23.8829 28.6504 22.0523 29.8139Z" stroke="#69A042" stroke-width="4"/>
</svg>
