<svg width="24" height="20" viewBox="0 0 24 20" fill="none" xmlns="http://www.w3.org/2000/svg">
    <path d="M12.0118 18.6669C12.009 18.6686 12.0062 18.6702 12.0033 18.6719C11.9999 18.6699 11.9964 18.6678 11.993 18.6658C11.6741 18.4774 11.2161 18.1999 10.6654 17.8462C9.56206 17.1376 8.09621 16.1297 6.63532 14.9279C5.1695 13.722 3.73847 12.3451 2.68148 10.9034C1.61629 9.45043 1 8.02599 1 6.70412C1 3.6511 3.47496 1.1761 6.52802 1.1761V1.17613L6.53582 1.17607C8.40135 1.16152 10.1454 2.09983 11.1613 3.6646L11.9951 4.94902L12.8359 3.66908C13.8602 2.10949 15.6024 1.17199 17.4683 1.17609C20.5165 1.1916 22.9839 3.65853 23 6.7066C22.9992 8.05462 22.3805 9.49108 21.3177 10.945C20.2615 12.3899 18.8315 13.763 17.3666 14.9623C15.9065 16.1576 14.4414 17.1562 13.3386 17.8571C12.7882 18.207 12.3305 18.4811 12.0118 18.6669Z" stroke="black" stroke-width="2"/>
</svg>
