<svg width="18" height="22" viewBox="0 0 18 22" fill="none" xmlns="http://www.w3.org/2000/svg">
<path d="M16.973 5.71874C16.198 3.21418 14.1605 1.17612 11.656 0.40101C9.00515 -0.420123 6.18476 0.0362486 4.03198 1.62248C1.89506 3.19776 0.619446 5.72123 0.619446 8.37258C0.619446 10.2016 1.19806 11.9393 2.29235 13.3975L9.00085 22.0001L15.7093 13.3969C17.347 11.2134 17.8079 8.41477 16.973 5.71874ZM9.00085 12.8856C6.51261 12.8856 4.4878 10.8608 4.4878 8.37253C4.4878 5.8843 6.51261 3.85948 9.00085 3.85948C11.4891 3.85948 13.5139 5.8843 13.5139 8.37253C13.5139 10.8608 11.4891 12.8856 9.00085 12.8856Z" fill="#323232"/>
<path d="M9.00085 5.15747C7.22345 5.15747 5.77725 6.59508 5.77725 8.37248C5.77725 10.1499 7.22345 11.5961 9.00085 11.5961C10.7783 11.5961 12.2245 10.1499 12.2245 8.37248C12.2245 6.59508 10.7783 5.15747 9.00085 5.15747Z" fill="#323232"/>
</svg>
