<svg width="40" height="40" viewBox="0 0 40 40" fill="none" xmlns="http://www.w3.org/2000/svg">
<circle cx="20" cy="20" r="20" fill="#2F89CE"/>
<path d="M9.3507 20.3741L13.9488 22.0886L15.7413 27.8557C15.8192 28.2454 16.2868 28.3233 16.5985 28.0895L19.1703 25.9853C19.4041 25.7515 19.7938 25.7515 20.1055 25.9853L24.7036 29.3364C25.0154 29.5702 25.483 29.4144 25.5609 29.0247L28.99 12.6587C29.0679 12.269 28.6782 11.8793 28.2886 12.0352L9.3507 19.3609C8.8831 19.5168 8.8831 20.2182 9.3507 20.3741ZM15.5075 21.2313L24.5477 15.6981C24.7036 15.6201 24.8595 15.8539 24.7036 15.9319L17.2999 22.868C17.0661 23.1018 16.8323 23.4135 16.8323 23.8032L16.5985 25.6736C16.5985 25.9074 16.2089 25.9853 16.1309 25.6736L15.1957 22.2445C14.9619 21.8548 15.1178 21.3872 15.5075 21.2313Z" fill="white"/>
</svg>
